# Wavefront Obj file
# 
# verts: 114 uv-s: 206
mtllib balloon.mtl

g Box001
#pivot 0.000000 0.000000 0.000000

v -0.374000 2.891600 1.558200
v -0.371700 4.488600 3.455400
v -0.745900 5.523800 2.938000
v -0.736900 4.488600 1.742700
v -0.401900 2.343700 0.000000
v -0.791400 3.977600 0.000000
v 0.000000 2.343700 1.674300
v 0.000000 3.977600 3.710800
v 0.000000 0.154800 0.000000
v 0.000000 0.000000 1.376600
v -0.335400 0.000000 0.973400
v -0.474400 0.000000 0.000000
v -0.371700 4.488600 -3.455400
v -0.374000 2.891600 -1.558200
v -0.736900 4.488600 -1.742700
v -0.745900 5.523800 -2.938000
v 0.000000 3.977600 -3.710800
v 0.000000 2.343700 -1.674300
v 0.000000 0.000000 -1.376600
v -0.335400 0.000000 -0.973400
v 0.374000 2.891600 -1.558200
v 0.371700 4.488600 -3.455400
v 0.745900 5.523800 -2.938000
v 0.736900 4.488600 -1.742700
v 0.401900 2.343700 0.000000
v 0.791400 3.977600 0.000000
v 0.335400 0.000000 -0.973400
v 0.474400 0.000000 0.000000
v 0.371700 4.488600 3.455400
v 0.374000 2.891600 1.558200
v 0.736900 4.488600 1.742700
v 0.745900 5.523800 2.938000
v 0.335400 0.000000 0.973400
v -0.417000 16.345100 2.456100
v -0.765100 14.885800 2.273200
v -0.650600 14.092100 3.832200
v -0.385900 14.885800 4.507200
v 0.000000 16.836700 2.639000
v 0.000000 15.277500 4.840300
v -0.448000 16.836700 0.000000
v -0.821700 15.277500 0.000000
v 0.000000 17.358999 0.000000
v 0.765100 14.885800 2.273200
v 0.417000 16.345100 2.456100
v 0.385900 14.885800 4.507200
v 0.650600 14.092100 3.832200
v 0.821700 15.277500 0.000000
v 0.448000 16.836700 0.000000
v 0.417000 16.345100 -2.456100
v 0.765100 14.885800 -2.273200
v 0.650600 14.092100 -3.832200
v 0.385900 14.885800 -4.507200
v 0.000000 16.836700 -2.639000
v 0.000000 15.277500 -4.840300
v -0.765100 14.885800 -2.273200
v -0.417000 16.345100 -2.456100
v -0.385900 14.885800 -4.507200
v -0.650600 14.092100 -3.832200
v -0.510100 7.184100 5.396800
v -0.936000 7.413200 4.231600
v 0.000000 6.955000 5.789300
v -0.518700 9.330900 6.117400
v -0.951300 9.330900 4.801900
v 0.000000 9.330900 6.558000
v 0.936000 7.413200 4.231600
v 0.510100 7.184100 5.396800
v 0.951300 9.330900 4.801900
v 0.518700 9.330900 6.117400
v 0.464500 12.025700 5.926300
v 0.852400 11.817100 4.646700
v 0.000000 12.234300 6.357300
v -0.852400 11.817100 4.646700
v -0.464500 12.025700 5.926300
v 1.193800 7.184100 2.305900
v 1.280600 6.955000 0.000000
v 1.211900 9.330900 2.618000
v 1.299200 9.330900 0.000000
v 0.936000 7.413200 -4.231600
v 1.193800 7.184100 -2.305900
v 0.951300 9.330900 -4.801900
v 1.211900 9.330900 -2.618000
v 1.087100 12.025700 -2.532100
v 0.852400 11.817100 -4.646700
v 1.166200 12.234300 0.000000
v 1.087100 12.025700 2.532100
v 0.510100 7.184100 -5.396800
v 0.000000 6.955000 -5.789300
v 0.518700 9.330900 -6.117400
v 0.000000 9.330900 -6.558000
v -0.936000 7.413200 -4.231600
v -0.510100 7.184100 -5.396800
v -0.951300 9.330900 -4.801900
v -0.518700 9.330900 -6.117400
v -0.464500 12.025700 -5.926300
v -0.852400 11.817100 -4.646700
v 0.000000 12.234300 -6.357300
v 0.464500 12.025700 -5.926300
v -1.193800 7.184100 -2.305900
v -1.280600 6.955000 0.000000
v -1.211900 9.330900 -2.618000
v -1.299200 9.330900 0.000000
v -1.193800 7.184100 2.305900
v -1.211900 9.330900 2.618000
v -1.087100 12.025700 2.532100
v -1.166200 12.234300 0.000000
v -1.087100 12.025700 -2.532100
v -0.134100 1.972800 0.000000
v -0.094800 1.972800 0.395000
v -0.094800 1.972800 -0.395000
v 0.000000 1.972800 -0.558700
v 0.094800 1.972800 -0.395000
v 0.134100 1.972800 0.000000
v 0.094800 1.972800 0.395000
v 0.000000 1.972800 0.558700
# 114 positions

vt 0.141500 0.516500
vt 0.217300 0.492400
vt 0.235700 0.524300
vt 0.187100 0.539000
vt 0.099400 0.549400
vt 0.142800 0.577600
vt 0.765600 0.543800
vt 0.681800 0.542000
vt 0.679000 0.512000
vt 0.758400 0.521400
vt 0.039600 0.739000
vt 0.032800 0.694900
vt 0.048600 0.705700
vt 0.059100 0.736000
vt 0.095500 0.680300
vt 0.086500 0.601200
vt 0.125700 0.633800
vt 0.132100 0.684100
vt 0.684300 0.899100
vt 0.766900 0.913300
vt 0.755600 0.933900
vt 0.675800 0.928000
vt 0.046400 0.783100
vt 0.058200 0.768100
vt 0.141500 0.053900
vt 0.217300 0.029800
vt 0.235700 0.061700
vt 0.187100 0.076400
vt 0.099400 0.086800
vt 0.142800 0.115000
vt 0.765600 0.081300
vt 0.681800 0.079400
vt 0.679000 0.049400
vt 0.758400 0.058800
vt 0.030500 0.772300
vt 0.020000 0.742000
vt 0.095500 0.217800
vt 0.086500 0.138700
vt 0.125700 0.171200
vt 0.132100 0.221500
vt 0.132500 0.945200
vt 0.215100 0.959400
vt 0.203800 0.980000
vt 0.124000 0.974100
vt 0.020900 0.710000
vt 0.514700 0.723800
vt 0.472700 0.703600
vt 0.479100 0.647600
vt 0.512100 0.642900
vt 0.757500 0.615900
vt 0.749500 0.638600
vt 0.669800 0.623900
vt 0.672000 0.601000
vt 0.484400 0.799100
vt 0.443000 0.772200
vt 0.881600 0.354800
vt 0.881600 0.373500
vt 0.802000 0.372200
vt 0.796100 0.354800
vt 0.392500 0.364700
vt 0.428100 0.394800
vt 0.353100 0.425500
vt 0.343900 0.393400
vt 0.443000 0.309600
vt 0.484400 0.336500
vt 0.748600 0.238500
vt 0.757500 0.260900
vt 0.672600 0.279000
vt 0.669600 0.256100
vt 0.881600 0.336100
vt 0.802000 0.337400
vt 0.514700 0.261200
vt 0.472700 0.241100
vt 0.479100 0.185000
vt 0.512100 0.180300
vt 0.757500 0.153300
vt 0.749500 0.176000
vt 0.669800 0.161300
vt 0.672000 0.138400
vt 0.961200 0.337400
vt 0.967100 0.354800
vt 0.392500 0.827300
vt 0.428100 0.857400
vt 0.353100 0.888000
vt 0.343900 0.856000
vt 0.748600 0.701000
vt 0.757500 0.723400
vt 0.672600 0.741500
vt 0.669600 0.718700
vt 0.961200 0.372200
vt 0.323200 0.486000
vt 0.308700 0.521700
vt 0.571800 0.518300
vt 0.577800 0.493400
vt 0.392900 0.503400
vt 0.369700 0.539200
vt 0.647000 0.820300
vt 0.647000 0.842000
vt 0.579000 0.841600
vt 0.571800 0.820300
vt 0.159500 0.289300
vt 0.132800 0.317000
vt 0.200400 0.337800
vt 0.177200 0.373600
vt 0.021100 0.972900
vt 0.020000 0.947400
vt 0.647000 0.798600
vt 0.579000 0.799000
vt 0.252100 0.414800
vt 0.269100 0.376400
vt 0.571800 0.264000
vt 0.574500 0.239600
vt 0.732300 0.800900
vt 0.738900 0.820300
vt 0.433000 0.586200
vt 0.461100 0.555000
vt 0.575400 0.643900
vt 0.571800 0.619700
vt 0.732300 0.839700
vt 0.187300 0.232900
vt 0.221900 0.166300
vt 0.238900 0.278400
vt 0.285000 0.207200
vt 0.308700 0.059100
vt 0.268700 0.107500
vt 0.369700 0.076600
vt 0.331200 0.136000
vt 0.401300 0.184800
vt 0.433000 0.123600
vt 0.362200 0.257200
vt 0.312000 0.322500
vt 0.323200 0.023400
vt 0.571800 0.055700
vt 0.577800 0.030800
vt 0.392900 0.040800
vt 0.647000 0.357700
vt 0.647000 0.379400
vt 0.579000 0.379000
vt 0.571800 0.357700
vt 0.159500 0.751800
vt 0.132800 0.779600
vt 0.200400 0.800400
vt 0.177200 0.836200
vt 0.572900 0.926900
vt 0.571800 0.901300
vt 0.647000 0.336100
vt 0.579000 0.336400
vt 0.252100 0.877400
vt 0.269100 0.839000
vt 0.571800 0.726500
vt 0.574500 0.702200
vt 0.732300 0.338300
vt 0.738900 0.357700
vt 0.461100 0.092400
vt 0.575400 0.181300
vt 0.571800 0.157100
vt 0.732300 0.377100
vt 0.187300 0.695500
vt 0.221900 0.628900
vt 0.238900 0.741000
vt 0.285000 0.669800
vt 0.268700 0.570100
vt 0.331200 0.598600
vt 0.401300 0.647300
vt 0.362200 0.719800
vt 0.312000 0.785100
vt 0.089600 0.543000
vt 0.096500 0.532300
vt 0.082600 0.553800
vt 0.840000 0.482600
vt 0.853300 0.502100
vt 0.831000 0.522200
vt 0.826700 0.521200
vt 0.806000 0.068500
vt 0.801800 0.073500
vt 0.089600 0.080500
vt 0.096500 0.069700
vt 0.082600 0.091200
vt 0.840000 0.020000
vt 0.853300 0.039500
vt 0.831000 0.059600
vt 0.826700 0.058600
vt 0.806000 0.531100
vt 0.801800 0.536100
vt 0.037200 0.509100
vt 0.054300 0.482600
vt 0.020000 0.535500
vt 0.021200 0.820100
vt 0.027700 0.821100
vt 0.039000 0.888000
vt 0.020000 0.886100
vt 0.027600 0.319500
vt 0.021100 0.320500
vt 0.020000 0.254600
vt 0.039000 0.252600
vt 0.037200 0.046500
vt 0.054300 0.020000
vt 0.020000 0.072900
vt 0.054600 0.820100
vt 0.061100 0.821100
vt 0.072400 0.888000
vt 0.053300 0.886100
vt 0.094200 0.887000
vt 0.087800 0.888000
vt 0.086600 0.822100
vt 0.105700 0.820200
# 206 texture coordinates

vn -0.899610 -0.385751 0.204693
vn -0.847523 -0.366447 0.383955
vn -0.944426 -0.242127 0.222336
vn -0.966325 -0.217817 0.137009
vn -0.915793 -0.401583 0.007307
vn -0.979598 -0.200860 -0.006548
vn -0.332697 -0.827134 0.452948
vn 0.378546 -0.631920 0.676299
vn 0.000000 -1.000000 -0.000000
vn 0.243309 -0.800113 0.548288
vn -0.784057 -0.471805 0.403304
vn -0.693898 -0.718479 0.047895
vn -0.910543 -0.296888 -0.287696
vn -0.874945 -0.420826 -0.239535
vn -0.968775 -0.208834 -0.133656
vn -0.958222 -0.220342 -0.182372
vn -0.378546 -0.631920 -0.676299
vn 0.332697 -0.827134 -0.452948
vn -0.243309 -0.800113 -0.548288
vn -0.943608 -0.144064 -0.298075
vn 0.899610 -0.385751 -0.204693
vn 0.847523 -0.366447 -0.383955
vn 0.944426 -0.242127 -0.222336
vn 0.966325 -0.217817 -0.137009
vn 0.915793 -0.401583 -0.007307
vn 0.979598 -0.200860 0.006548
vn 0.784057 -0.471805 -0.403304
vn 0.693898 -0.718479 -0.047895
vn 0.910543 -0.296888 0.287696
vn 0.874945 -0.420826 0.239535
vn 0.968775 -0.208834 0.133656
vn 0.958222 -0.220342 0.182372
vn 0.943608 -0.144064 0.298075
vn -0.894021 0.412111 0.175761
vn -0.981693 0.169730 0.086436
vn -0.974244 0.162354 0.156492
vn -0.894677 0.308702 0.322888
vn -0.011770 0.917260 0.398115
vn 0.013915 0.646058 0.763162
vn -0.894818 0.446315 -0.010140
vn -0.984930 0.172174 -0.016427
vn 0.000000 1.000000 0.000000
vn 0.979233 0.165736 0.116767
vn 0.899747 0.390272 0.195301
vn 0.891274 0.278111 0.358168
vn 0.967574 0.158616 0.196574
vn 0.984930 0.172174 0.016427
vn 0.894818 0.446315 0.010140
vn 0.894021 0.412111 -0.175761
vn 0.981693 0.169730 -0.086436
vn 0.974244 0.162354 -0.156492
vn 0.894677 0.308702 -0.322888
vn 0.011770 0.917260 -0.398115
vn -0.013915 0.646058 -0.763162
vn -0.979233 0.165736 -0.116767
vn -0.899747 0.390272 -0.195301
vn -0.891274 0.278111 -0.358168
vn -0.967574 0.158616 -0.196574
vn -0.822531 -0.270173 0.500450
vn -0.958870 -0.161828 0.233197
vn -0.039713 -0.448819 0.892740
vn -0.834160 -0.052684 0.549000
vn -0.976715 -0.005169 0.214479
vn 0.008041 -0.123525 0.992309
vn 0.967548 -0.146135 0.206145
vn 0.848057 -0.257798 0.462968
vn 0.975820 -0.017015 0.217911
vn 0.835217 -0.074391 0.544866
vn 0.856662 0.137995 0.497080
vn 0.973611 0.097122 0.206516
vn 0.030143 0.261503 0.964732
vn -0.977981 0.099686 0.183348
vn -0.867048 0.158847 0.472223
vn 0.989684 -0.105212 0.097240
vn 0.996008 -0.088936 0.007651
vn 0.996811 0.009732 0.079200
vn 0.999832 0.018326 0.000573
vn 0.958870 -0.161828 -0.233197
vn 0.989570 -0.105477 -0.098112
vn 0.976715 -0.005169 -0.214479
vn 0.996952 0.016063 -0.076345
vn 0.993104 0.085469 -0.080249
vn 0.977981 0.099686 -0.183348
vn 0.996798 0.079936 -0.001818
vn 0.993449 0.082401 0.079184
vn 0.822531 -0.270173 -0.500450
vn 0.039713 -0.448819 -0.892740
vn 0.834160 -0.052684 -0.549000
vn -0.008041 -0.123525 -0.992309
vn -0.967548 -0.146135 -0.206145
vn -0.848057 -0.257798 -0.462968
vn -0.975820 -0.017015 -0.217911
vn -0.835217 -0.074391 -0.544866
vn -0.856662 0.137995 -0.497080
vn -0.973611 0.097122 -0.206516
vn -0.030143 0.261503 -0.964732
vn 0.867048 0.158847 -0.472223
vn -0.989684 -0.105212 -0.097240
vn -0.996008 -0.088936 -0.007651
vn -0.996811 0.009732 -0.079200
vn -0.999832 0.018326 -0.000573
vn -0.989570 -0.105477 0.098112
vn -0.996952 0.016063 0.076345
vn -0.993104 0.085469 0.080249
vn -0.996798 0.079936 0.001818
vn -0.993449 0.082401 -0.079184
vn -0.981449 -0.191096 0.015497
vn -0.944052 -0.220581 0.245175
vn -0.913825 -0.211387 -0.346756
vn -0.094064 -0.478287 -0.873152
vn 0.944052 -0.220581 -0.245175
vn 0.981449 -0.191096 -0.015497
vn 0.913825 -0.211387 0.346756
vn 0.094064 -0.478287 0.873152
# 114 normals

usemtl default
f 1/1/1 2/2/2 3/3/3
f 3/3/3 4/4/4 1/1/1
f 5/5/5 1/1/1 4/4/4
f 4/4/4 6/6/6 5/5/5
f 7/7/7 8/8/8 2/9/2
f 2/9/2 1/10/1 7/7/7
f 9/11/9 10/12/10 11/13/11
f 11/13/11 12/14/12 9/11/9
f 13/15/13 14/16/14 15/17/15
f 15/17/15 16/18/16 13/15/13
f 17/19/17 18/20/18 14/21/14
f 14/21/14 13/22/13 17/19/17
f 14/16/14 5/5/5 6/6/6
f 6/6/6 15/17/15 14/16/14
f 19/23/19 9/11/9 12/14/12
f 12/14/12 20/24/20 19/23/19
f 21/25/21 22/26/22 23/27/23
f 23/27/23 24/28/24 21/25/21
f 25/29/25 21/25/21 24/28/24
f 24/28/24 26/30/26 25/29/25
f 18/31/18 17/32/17 22/33/22
f 22/33/22 21/34/21 18/31/18
f 9/11/9 19/23/19 27/35/27
f 27/35/27 28/36/28 9/11/9
f 29/37/29 30/38/30 31/39/31
f 31/39/31 32/40/32 29/37/29
f 8/41/8 7/42/7 30/43/30
f 30/43/30 29/44/29 8/41/8
f 30/38/30 25/29/25 26/30/26
f 26/30/26 31/39/31 30/38/30
f 10/12/10 9/11/9 28/36/28
f 28/36/28 33/45/33 10/12/10
f 34/46/34 35/47/35 36/48/36
f 36/48/36 37/49/37 34/46/34
f 38/50/38 34/51/34 37/52/37
f 37/52/37 39/53/39 38/50/38
f 40/54/40 41/55/41 35/47/35
f 35/47/35 34/46/34 40/54/40
f 42/56/42 40/57/40 34/58/34
f 34/58/34 38/59/38 42/56/42
f 43/60/43 44/61/44 45/62/45
f 45/62/45 46/63/46 43/60/43
f 47/64/47 48/65/48 44/61/44
f 44/61/44 43/60/43 47/64/47
f 44/66/44 38/67/38 39/68/39
f 39/68/39 45/69/45 44/66/44
f 48/70/48 42/56/42 38/59/38
f 38/59/38 44/71/44 48/70/48
f 49/72/49 50/73/50 51/74/51
f 51/74/51 52/75/52 49/72/49
f 53/76/53 49/77/49 52/78/52
f 52/78/52 54/79/54 53/76/53
f 48/65/48 47/64/47 50/73/50
f 50/73/50 49/72/49 48/65/48
f 42/56/42 48/70/48 49/80/49
f 49/80/49 53/81/53 42/56/42
f 55/82/55 56/83/56 57/84/57
f 57/84/57 58/85/58 55/82/55
f 41/55/41 40/54/40 56/83/56
f 56/83/56 55/82/55 41/55/41
f 56/86/56 53/87/53 54/88/54
f 54/88/54 57/89/57 56/86/56
f 40/57/40 42/56/42 53/81/53
f 53/81/53 56/90/56 40/57/40
f 59/91/59 60/92/60 3/3/3
f 3/3/3 2/2/2 59/91/59
f 61/93/61 59/94/59 2/9/2
f 2/9/2 8/8/8 61/93/61
f 62/95/62 63/96/63 60/92/60
f 60/92/60 59/91/59 62/95/62
f 64/97/64 62/98/62 59/99/59
f 59/99/59 61/100/61 64/97/64
f 65/101/65 66/102/66 29/37/29
f 29/37/29 32/40/32 65/101/65
f 67/103/67 68/104/68 66/102/66
f 66/102/66 65/101/65 67/103/67
f 66/105/66 61/106/61 8/41/8
f 8/41/8 29/44/29 66/105/66
f 68/107/68 64/97/64 61/100/61
f 61/100/61 66/108/66 68/107/68
f 69/109/69 70/110/70 46/63/46
f 46/63/46 45/62/45 69/109/69
f 71/111/71 69/112/69 45/69/45
f 45/69/45 39/68/39 71/111/71
f 68/104/68 67/103/67 70/110/70
f 70/110/70 69/109/69 68/104/68
f 64/97/64 68/107/68 69/113/69
f 69/113/69 71/114/71 64/97/64
f 72/115/72 73/116/73 37/49/37
f 37/49/37 36/48/36 72/115/72
f 63/96/63 62/95/62 73/116/73
f 73/116/73 72/115/72 63/96/63
f 73/117/73 71/118/71 39/53/39
f 39/53/39 37/52/37 73/117/73
f 62/98/62 64/97/64 71/114/71
f 71/114/71 73/119/73 62/98/62
f 74/120/74 65/101/65 32/40/32
f 32/40/32 31/39/31 74/120/74
f 75/121/75 74/120/74 31/39/31
f 31/39/31 26/30/26 75/121/75
f 76/122/76 67/103/67 65/101/65
f 65/101/65 74/120/74 76/122/76
f 77/123/77 76/122/76 74/120/74
f 74/120/74 75/121/75 77/123/77
f 78/124/78 79/125/79 24/28/24
f 24/28/24 23/27/23 78/124/78
f 80/126/80 81/127/81 79/125/79
f 79/125/79 78/124/78 80/126/80
f 79/125/79 75/121/75 26/30/26
f 26/30/26 24/28/24 79/125/79
f 81/127/81 77/123/77 75/121/75
f 75/121/75 79/125/79 81/127/81
f 82/128/82 83/129/83 51/74/51
f 51/74/51 50/73/50 82/128/82
f 84/130/84 82/128/82 50/73/50
f 50/73/50 47/64/47 84/130/84
f 81/127/81 80/126/80 83/129/83
f 83/129/83 82/128/82 81/127/81
f 77/123/77 81/127/81 82/128/82
f 82/128/82 84/130/84 77/123/77
f 70/110/70 85/131/85 43/60/43
f 43/60/43 46/63/46 70/110/70
f 67/103/67 76/122/76 85/131/85
f 85/131/85 70/110/70 67/103/67
f 85/131/85 84/130/84 47/64/47
f 47/64/47 43/60/43 85/131/85
f 76/122/76 77/123/77 84/130/84
f 84/130/84 85/131/85 76/122/76
f 86/132/86 78/124/78 23/27/23
f 23/27/23 22/26/22 86/132/86
f 87/133/87 86/134/86 22/33/22
f 22/33/22 17/32/17 87/133/87
f 88/135/88 80/126/80 78/124/78
f 78/124/78 86/132/86 88/135/88
f 89/136/89 88/137/88 86/138/86
f 86/138/86 87/139/87 89/136/89
f 90/140/90 91/141/91 13/15/13
f 13/15/13 16/18/16 90/140/90
f 92/142/92 93/143/93 91/141/91
f 91/141/91 90/140/90 92/142/92
f 91/144/91 87/145/87 17/19/17
f 17/19/17 13/22/13 91/144/91
f 93/146/93 89/136/89 87/139/87
f 87/139/87 91/147/91 93/146/93
f 94/148/94 95/149/95 58/85/58
f 58/85/58 57/84/57 94/148/94
f 96/150/96 94/151/94 57/89/57
f 57/89/57 54/88/54 96/150/96
f 93/143/93 92/142/92 95/149/95
f 95/149/95 94/148/94 93/143/93
f 89/136/89 93/146/93 94/152/94
f 94/152/94 96/153/96 89/136/89
f 83/129/83 97/154/97 52/75/52
f 52/75/52 51/74/51 83/129/83
f 80/126/80 88/135/88 97/154/97
f 97/154/97 83/129/83 80/126/80
f 97/155/97 96/156/96 54/79/54
f 54/79/54 52/78/52 97/155/97
f 88/137/88 89/136/89 96/153/96
f 96/153/96 97/157/97 88/137/88
f 98/158/98 90/140/90 16/18/16
f 16/18/16 15/17/15 98/158/98
f 99/159/99 98/158/98 15/17/15
f 15/17/15 6/6/6 99/159/99
f 100/160/100 92/142/92 90/140/90
f 90/140/90 98/158/98 100/160/100
f 101/161/101 100/160/100 98/158/98
f 98/158/98 99/159/99 101/161/101
f 60/92/60 102/162/102 4/4/4
f 4/4/4 3/3/3 60/92/60
f 63/96/63 103/163/103 102/162/102
f 102/162/102 60/92/60 63/96/63
f 102/162/102 99/159/99 6/6/6
f 6/6/6 4/4/4 102/162/102
f 103/163/103 101/161/101 99/159/99
f 99/159/99 102/162/102 103/163/103
f 104/164/104 72/115/72 36/48/36
f 36/48/36 35/47/35 104/164/104
f 105/165/105 104/164/104 35/47/35
f 35/47/35 41/55/41 105/165/105
f 103/163/103 63/96/63 72/115/72
f 72/115/72 104/164/104 103/163/103
f 101/161/101 103/163/103 104/164/104
f 104/164/104 105/165/105 101/161/101
f 95/149/95 106/166/106 55/82/55
f 55/82/55 58/85/58 95/149/95
f 92/142/92 100/160/100 106/166/106
f 106/166/106 95/149/95 92/142/92
f 106/166/106 105/165/105 41/55/41
f 41/55/41 55/82/55 106/166/106
f 100/160/100 101/161/101 105/165/105
f 105/165/105 106/166/106 100/160/100
f 1/1/1 5/5/5 107/167/107
f 107/167/107 108/168/108 1/1/1
f 5/5/5 14/16/14 109/169/109
f 109/169/109 107/167/107 5/5/5
f 14/170/14 18/171/18 110/172/110
f 110/172/110 109/173/109 14/170/14
f 18/31/18 21/34/21 111/174/111
f 111/174/111 110/175/110 18/31/18
f 21/25/21 25/29/25 112/176/112
f 112/176/112 111/177/111 21/25/21
f 25/29/25 30/38/30 113/178/113
f 113/178/113 112/176/112 25/29/25
f 30/179/30 7/180/7 114/181/114
f 114/181/114 113/182/113 30/179/30
f 7/7/7 1/10/1 108/183/108
f 108/183/108 114/184/114 7/7/7
f 108/168/108 107/167/107 12/185/12
f 12/185/12 11/186/11 108/168/108
f 107/167/107 109/169/109 20/187/20
f 20/187/20 12/185/12 107/167/107
f 109/188/109 110/189/110 19/190/19
f 19/190/19 20/191/20 109/188/109
f 110/192/110 111/193/111 27/194/27
f 27/194/27 19/195/19 110/192/110
f 111/177/111 112/176/112 28/196/28
f 28/196/28 27/197/27 111/177/111
f 112/176/112 113/178/113 33/198/33
f 33/198/33 28/196/28 112/176/112
f 113/199/113 114/200/114 10/201/10
f 10/201/10 33/202/33 113/199/113
f 114/203/114 108/204/108 11/205/11
f 11/205/11 10/206/10 114/203/114

# 224 faces
