# Wavefront Obj file
# 
# verts: 48 uv-s: 92
mtllib switch.mtl

g switch
#pivot 0.000000 0.000000 0.000000

v 14.993600 -1.878700 17.234699
v 14.993600 1.878700 17.234699
v -14.993600 1.878700 17.234699
v -14.993600 -1.878700 17.234699
v 16.702200 -1.878700 -15.526100
v 16.702200 1.878700 -15.526100
v 16.702200 1.878700 15.526100
v 16.702200 -1.878700 15.526100
v -14.993600 -1.878700 -17.234699
v -14.993600 1.878700 -17.234699
v 14.993600 1.878700 -17.234699
v 14.993600 -1.878700 -17.234699
v -16.702200 -1.878700 15.526100
v -16.702200 1.878700 15.526100
v -16.702200 1.878700 -15.526100
v -16.702200 -1.878700 -15.526100
v 16.129801 -1.878700 16.662300
v 16.129801 1.878700 16.662300
v -16.129801 1.878700 16.662300
v -16.129801 -1.878700 16.662300
v 16.129801 -1.878700 -16.662300
v 16.129801 1.878700 -16.662300
v -16.129801 -1.878700 -16.662300
v -16.129801 1.878700 -16.662300
v -11.577600 1.878700 11.959800
v -11.988400 1.878700 11.144300
v -10.762100 1.878700 12.370700
v 10.762100 1.878700 12.370700
v 11.577600 1.878700 11.959800
v 11.988400 1.878700 11.144300
v 11.988400 1.878700 -11.144300
v 11.577600 1.878700 -11.959800
v 10.762100 1.878700 -12.370700
v -10.762100 1.878700 -12.370700
v -11.577600 1.878700 -11.959800
v -11.988400 1.878700 -11.144300
v -11.577600 0.094600 11.959800
v -11.988400 0.094600 11.144300
v -10.762100 0.094600 12.370700
v 10.762100 0.094600 12.370700
v 11.577600 0.094600 11.959800
v 11.988400 0.094600 11.144300
v 11.988400 0.094600 -11.144300
v 11.577600 0.094600 -11.959800
v 10.762100 0.094600 -12.370700
v -10.762100 0.094600 -12.370700
v -11.577600 0.094600 -11.959800
v -11.988400 0.094600 -11.144300
# 48 positions

vt 0.022400 0.848400
vt 0.022400 0.780900
vt 0.561500 0.780900
vt 0.561500 0.848400
vt 0.022400 0.682800
vt 0.022400 0.615300
vt 0.580600 0.615300
vt 0.580600 0.682800
vt 0.022400 0.931200
vt 0.022400 0.863700
vt 0.561500 0.863700
vt 0.561500 0.931200
vt 0.022400 0.765600
vt 0.022400 0.698100
vt 0.580600 0.698100
vt 0.580600 0.765600
vt 0.002000 0.848400
vt 0.002000 0.780900
vt 0.581900 0.780900
vt 0.581900 0.848400
vt 0.002000 0.682800
vt 0.002000 0.615300
vt 0.601000 0.615300
vt 0.601000 0.682800
vt 0.002000 0.931200
vt 0.002000 0.863700
vt 0.581900 0.863700
vt 0.581900 0.931200
vt 0.002000 0.765600
vt 0.002000 0.698100
vt 0.601000 0.698100
vt 0.601000 0.765600
vt 0.032600 0.600000
vt 0.012200 0.589800
vt 0.096400 0.508300
vt 0.111000 0.515600
vt 0.002000 0.569400
vt 0.089100 0.493700
vt 0.002000 0.032600
vt 0.089100 0.108300
vt 0.012200 0.012200
vt 0.096400 0.093700
vt 0.032600 0.002000
vt 0.111000 0.086400
vt 0.588500 0.002000
vt 0.510000 0.086400
vt 0.608800 0.012200
vt 0.524600 0.093700
vt 0.619100 0.032600
vt 0.532000 0.108300
vt 0.619100 0.569400
vt 0.532000 0.493700
vt 0.608800 0.589800
vt 0.524600 0.508300
vt 0.588500 0.600000
vt 0.510000 0.515600
vt 0.378900 0.946500
vt 0.396200 0.946500
vt 0.396200 0.980300
vt 0.378900 0.980300
vt 0.410100 0.946500
vt 0.410100 0.980300
vt 0.425400 0.946500
vt 0.811600 0.946500
vt 0.811600 0.978500
vt 0.425400 0.978500
vt 0.826200 0.946500
vt 0.826200 0.978500
vt 0.990700 0.814600
vt 0.973400 0.814600
vt 0.973400 0.780900
vt 0.990700 0.780900
vt 0.597200 0.814600
vt 0.597200 0.780900
vt 0.665400 0.035600
vt 0.648200 0.035600
vt 0.648200 0.002000
vt 0.665400 0.002000
vt 0.634300 0.035600
vt 0.634300 0.002000
vt 0.597200 0.863700
vt 0.983400 0.863700
vt 0.983400 0.895700
vt 0.597200 0.895700
vt 0.998000 0.863700
vt 0.998000 0.895700
vt 0.632600 0.647200
vt 0.616300 0.647200
vt 0.616300 0.615300
vt 0.632600 0.615300
vt 0.002000 0.946500
vt 0.002000 0.980300
# 92 texture coordinates

vn 0.231223 0.000000 0.972901
vn -0.231223 0.000000 0.972901
vn 0.972901 0.000000 -0.231223
vn 0.972901 0.000000 0.231223
vn -0.231223 0.000000 -0.972901
vn 0.231223 0.000000 -0.972901
vn -0.972901 0.000000 0.231223
vn -0.972901 0.000000 -0.231223
vn 0.707107 0.000000 0.707107
vn -0.707107 0.000000 0.707107
vn 0.707107 0.000000 -0.707107
vn -0.707107 0.000000 -0.707107
vn 0.000000 1.000000 0.000000
vn 0.893087 0.000000 -0.449885
vn 0.449971 0.000000 -0.893043
vn 0.000000 0.000000 -1.000000
vn -0.449971 0.000000 -0.893043
vn -0.893087 0.000000 -0.449885
vn -1.000000 0.000000 0.000000
vn -0.893087 0.000000 0.449885
vn -0.449971 0.000000 0.893043
vn 0.000000 0.000000 1.000000
vn 0.449971 0.000000 0.893043
vn 0.893087 0.000000 0.449885
vn 1.000000 0.000000 0.000000
# 25 normals

usemtl default
f 1/1/1 2/2/1 3/3/2
f 3/3/2 4/4/2 1/1/1
f 5/5/3 6/6/3 7/7/4
f 7/7/4 8/8/4 5/5/3
f 9/9/5 10/10/5 11/11/6
f 11/11/6 12/12/6 9/9/5
f 13/13/7 14/14/7 15/15/8
f 15/15/8 16/16/8 13/13/7
f 2/2/1 1/1/1 17/17/9
f 17/17/9 18/18/9 2/2/1
f 4/4/2 3/3/2 19/19/10
f 19/19/10 20/20/10 4/4/2
f 6/6/3 5/5/3 21/21/11
f 21/21/11 22/22/11 6/6/3
f 8/8/4 7/7/4 18/23/9
f 18/23/9 17/24/9 8/8/4
f 10/10/5 9/9/5 23/25/12
f 23/25/12 24/26/12 10/10/5
f 12/12/6 11/11/6 22/27/11
f 22/27/11 21/28/11 12/12/6
f 14/14/7 13/13/7 20/29/10
f 20/29/10 19/30/10 14/14/7
f 16/16/8 15/15/8 24/31/12
f 24/31/12 23/32/12 16/16/8
f 14/33/13 19/34/13 25/35/13
f 25/35/13 26/36/13 14/33/13
f 19/34/13 3/37/13 27/38/13
f 27/38/13 25/35/13 19/34/13
f 3/37/13 2/39/13 28/40/13
f 28/40/13 27/38/13 3/37/13
f 2/39/13 18/41/13 29/42/13
f 29/42/13 28/40/13 2/39/13
f 18/41/13 7/43/13 30/44/13
f 30/44/13 29/42/13 18/41/13
f 7/43/13 6/45/13 31/46/13
f 31/46/13 30/44/13 7/43/13
f 6/45/13 22/47/13 32/48/13
f 32/48/13 31/46/13 6/45/13
f 22/47/13 11/49/13 33/50/13
f 33/50/13 32/48/13 22/47/13
f 11/49/13 10/51/13 34/52/13
f 34/52/13 33/50/13 11/49/13
f 10/51/13 24/53/13 35/54/13
f 35/54/13 34/52/13 10/51/13
f 24/53/13 15/55/13 36/56/13
f 36/56/13 35/54/13 24/53/13
f 15/55/13 14/33/13 26/36/13
f 26/36/13 36/56/13 15/55/13
f 26/57/14 25/58/14 37/59/14
f 37/59/14 38/60/14 26/57/14
f 25/58/15 27/61/15 39/62/15
f 39/62/15 37/59/15 25/58/15
f 27/63/16 28/64/16 40/65/16
f 40/65/16 39/66/16 27/63/16
f 28/64/17 29/67/17 41/68/17
f 41/68/17 40/65/17 28/64/17
f 29/69/18 30/70/18 42/71/18
f 42/71/18 41/72/18 29/69/18
f 30/70/19 31/73/19 43/74/19
f 43/74/19 42/71/19 30/70/19
f 31/75/20 32/76/20 44/77/20
f 44/77/20 43/78/20 31/75/20
f 32/76/21 33/79/21 45/80/21
f 45/80/21 44/77/21 32/76/21
f 33/81/22 34/82/22 46/83/22
f 46/83/22 45/84/22 33/81/22
f 34/82/23 35/85/23 47/86/23
f 47/86/23 46/83/23 34/82/23
f 35/87/24 36/88/24 48/89/24
f 48/89/24 47/90/24 35/87/24
f 36/91/25 26/57/25 38/60/25
f 38/60/25 48/92/25 36/91/25

# 72 faces
