# Wavefront Obj file
# 
# verts: 61 uv-s: 161
mtllib gas_bottle_cap.mtl

g Cylinder002
#pivot 0.000000 0.000000 0.000000

v 1.908600 0.679600 -1.102000
v 1.908600 1.436100 -1.102000
v 2.203900 1.436100 0.000000
v 2.203900 0.679600 0.000000
v 1.102000 0.679600 -1.908600
v 1.102000 1.436100 -1.908600
v 0.000000 0.679600 -2.203900
v 0.000000 1.436100 -2.203900
v -1.102000 0.679600 -1.908600
v -1.102000 1.436100 -1.908600
v -1.908600 0.679600 -1.102000
v -1.908600 1.436100 -1.102000
v -2.203900 0.679600 0.000000
v -2.203900 1.436100 0.000000
v -1.908600 0.679600 1.102000
v -1.908600 1.436100 1.102000
v -1.102000 0.679600 1.908600
v -1.102000 1.436100 1.908600
v 0.000000 0.679600 2.203900
v 0.000000 1.436100 2.203900
v 1.102000 0.679600 1.908600
v 1.102000 1.436100 1.908600
v 1.908600 0.679600 1.102000
v 1.908600 1.436100 1.102000
v 2.809000 2.141000 -0.993200
v 2.929300 2.141000 -0.544400
v 2.929300 1.659700 -0.544400
v 2.809000 1.659700 -0.993200
v 1.102000 2.364600 -1.908600
v 1.908600 2.364600 -1.102000
v 0.483100 2.089400 -2.945700
v 1.054400 2.089400 -2.792600
v 1.054400 1.711300 -2.792600
v 0.483100 1.711300 -2.945700
v -1.102000 2.364600 -1.908600
v 0.000000 2.364600 -2.203900
v -2.309500 2.089400 -1.891300
v -1.891300 2.089400 -2.309500
v -1.891300 1.711300 -2.309500
v -2.309500 1.711300 -1.891300
v -2.203900 2.364600 0.000000
v -1.908600 2.364600 -1.102000
v -2.809000 2.141000 0.993200
v -2.929300 2.141000 0.544400
v -2.929300 1.659700 0.544400
v -2.809000 1.659700 0.993200
v -1.102000 2.364600 1.908600
v -1.908600 2.364600 1.102000
v -0.483100 2.089400 2.945700
v -1.054400 2.089400 2.792600
v -1.054400 1.711300 2.792600
v -0.483100 1.711300 2.945700
v 1.102000 2.364600 1.908600
v 0.000000 2.364600 2.203900
v 2.309500 2.089400 1.891300
v 1.891300 2.089400 2.309500
v 1.891300 1.711300 2.309500
v 2.309500 1.711300 1.891300
v 2.203900 2.364600 0.000000
v 1.908600 2.364600 1.102000
v 0.000000 2.364600 0.000000
# 61 positions

vt 0.622400 0.779500
vt 0.622400 0.734400
vt 0.739200 0.734400
vt 0.739200 0.779500
vt 0.536800 0.779500
vt 0.536800 0.734400
vt 0.635400 0.893500
vt 0.635400 0.850200
vt 0.747500 0.850200
vt 0.747500 0.893500
vt 0.523400 0.893500
vt 0.523400 0.850200
vt 0.862500 0.661500
vt 0.862500 0.615600
vt 0.949300 0.615600
vt 0.949300 0.661500
vt 0.743800 0.661500
vt 0.743800 0.615600
vt 0.625100 0.661500
vt 0.625100 0.615600
vt 0.538300 0.661500
vt 0.538300 0.615600
vt 0.854100 0.101700
vt 0.854100 0.056900
vt 0.969900 0.056900
vt 0.969900 0.101700
vt 0.738300 0.101700
vt 0.738300 0.056900
vt 0.653600 0.101700
vt 0.653600 0.056900
vt 0.856100 0.734400
vt 0.856100 0.779500
vt 0.268900 0.982900
vt 0.155600 0.982100
vt 0.057900 0.924700
vt 0.002000 0.826200
vt 0.002800 0.712900
vt 0.060200 0.615200
vt 0.158700 0.559300
vt 0.272000 0.560100
vt 0.369700 0.617400
vt 0.425600 0.715900
vt 0.424800 0.829200
vt 0.367500 0.926900
vt 0.818700 0.223600
vt 0.864000 0.223600
vt 0.864000 0.251000
vt 0.818700 0.251000
vt 0.536800 0.678900
vt 0.622400 0.678900
vt 0.896700 0.866600
vt 0.954400 0.866600
vt 0.954400 0.888100
vt 0.896700 0.888100
vt 0.523400 0.797000
vt 0.635400 0.797000
vt 0.947500 0.575900
vt 0.992500 0.575900
vt 0.992500 0.598900
vt 0.947500 0.598900
vt 0.743800 0.559300
vt 0.862500 0.559300
vt 0.950000 0.119200
vt 0.995300 0.119200
vt 0.995300 0.146600
vt 0.950000 0.146600
vt 0.538300 0.559300
vt 0.625100 0.559300
vt 0.718700 0.327100
vt 0.776400 0.327100
vt 0.776400 0.348600
vt 0.718700 0.348600
vt 0.738300 0.002000
vt 0.854100 0.002000
vt 0.611500 0.018300
vt 0.655400 0.018300
vt 0.655400 0.040700
vt 0.611500 0.040700
vt 0.739200 0.678900
vt 0.856100 0.678900
vt 0.350600 0.484700
vt 0.450000 0.429900
vt 0.460900 0.519500
vt 0.420500 0.541800
vt 0.932500 0.199700
vt 0.874500 0.199700
vt 0.888500 0.119200
vt 0.918600 0.119200
vt 0.688600 0.995600
vt 0.574700 0.994800
vt 0.609100 0.911000
vt 0.655500 0.911300
vt 0.701200 0.327100
vt 0.701200 0.379200
vt 0.611500 0.366600
vt 0.611500 0.339600
vt 0.140000 0.423900
vt 0.237100 0.482500
vt 0.170500 0.540100
vt 0.120100 0.509600
vt 0.443100 0.717900
vt 0.443100 0.695300
vt 0.443100 0.911000
vt 0.557300 0.914700
vt 0.527100 0.998000
vt 0.467900 0.996100
vt 0.691900 0.396600
vt 0.691900 0.453400
vt 0.611500 0.436500
vt 0.611500 0.413400
vt 0.087400 0.211000
vt 0.085200 0.324500
vt 0.002000 0.295500
vt 0.003200 0.236700
vt 0.443100 0.834400
vt 0.443100 0.812800
vt 0.725700 0.309600
vt 0.611500 0.307400
vt 0.640600 0.223600
vt 0.699800 0.224800
vt 0.245400 0.059100
vt 0.146000 0.113900
vt 0.135100 0.024300
vt 0.175500 0.002000
vt 0.801200 0.304200
vt 0.743100 0.304200
vt 0.757100 0.223600
vt 0.787200 0.223600
vt 0.743100 0.119200
vt 0.857000 0.120000
vt 0.822700 0.203800
vt 0.776300 0.203500
vt 0.986400 0.797000
vt 0.986400 0.849100
vt 0.896700 0.836600
vt 0.896700 0.809600
vt 0.456000 0.119900
vt 0.358900 0.061300
vt 0.425500 0.003700
vt 0.475900 0.034200
vt 0.443100 0.598900
vt 0.443100 0.575900
vt 0.725600 0.206200
vt 0.611500 0.202500
vt 0.641700 0.119200
vt 0.700800 0.121100
vt 0.786600 0.911000
vt 0.786600 0.967700
vt 0.706100 0.950900
vt 0.706100 0.927800
vt 0.508600 0.332800
vt 0.510800 0.219300
vt 0.594000 0.248300
vt 0.592800 0.307100
vt 0.765000 0.797000
vt 0.879200 0.799200
vt 0.850100 0.883000
vt 0.790800 0.881800
vt 0.939800 0.695300
vt 0.939800 0.717900
vt 0.298000 0.271900
# 161 texture coordinates

vn 0.907068 0.000000 -0.420984
vn 0.775678 0.000000 -0.631129
vn 1.000000 0.000000 -0.000000
vn 0.996035 0.000000 0.088968
vn 0.575066 0.000000 -0.818107
vn 0.500007 0.000000 -0.866021
vn 0.088968 0.000000 -0.996035
vn -0.158742 0.000000 -0.987320
vn -0.420984 0.000000 -0.907068
vn -0.500007 0.000000 -0.866021
vn -0.818107 0.000000 -0.575066
vn -0.934407 0.000000 -0.356209
vn -0.996035 0.000000 -0.088968
vn -1.000000 0.000000 0.000000
vn -0.907068 0.000000 0.420984
vn -0.775678 0.000000 0.631129
vn -0.575066 0.000000 0.818107
vn -0.500007 0.000000 0.866021
vn -0.088968 0.000000 0.996035
vn 0.158742 0.000000 0.987320
vn 0.420984 0.000000 0.907068
vn 0.500007 0.000000 0.866021
vn 0.818107 0.000000 0.575066
vn 0.934407 0.000000 0.356209
vn 0.000000 -1.000000 0.000000
vn 0.965902 0.000000 -0.258908
vn 0.707107 0.000000 -0.707107
vn 0.258852 0.000000 -0.965917
vn -0.258836 0.000000 -0.965922
vn -0.707107 0.000000 -0.707107
vn -0.965922 0.000000 -0.258836
vn -0.965902 0.000000 0.258908
vn -0.707107 0.000000 0.707107
vn -0.258852 0.000000 0.965917
vn 0.258836 0.000000 0.965922
vn 0.707107 0.000000 0.707107
vn 0.965922 0.000000 0.258836
vn 0.248034 0.966468 -0.066475
vn 0.600247 0.000000 0.799815
vn 0.248027 -0.966470 -0.066473
vn 0.119963 0.000000 -0.992778
vn 0.080452 0.950471 -0.300222
vn 0.998553 0.000000 -0.053768
vn 0.080453 -0.950470 -0.300223
vn -0.837963 0.000000 -0.545727
vn -0.219770 0.950475 -0.219770
vn 0.452853 0.000000 -0.891585
vn -0.219770 -0.950475 -0.219770
vn -0.891585 0.000000 0.452853
vn -0.248034 0.966468 0.066475
vn -0.600247 0.000000 -0.799815
vn -0.248027 -0.966470 0.066473
vn -0.119963 0.000000 0.992778
vn -0.080452 0.950471 0.300222
vn -0.998553 0.000000 0.053768
vn -0.080453 -0.950470 0.300223
vn 0.837963 0.000000 0.545727
vn 0.219770 0.950475 0.219770
vn -0.452853 0.000000 0.891585
vn 0.219770 -0.950475 0.219770
vn 0.891585 0.000000 -0.452853
vn 0.000000 1.000000 0.000000
vn 0.000000 1.000000 0.000000
vn 0.000000 1.000000 0.000000
vn 0.000000 1.000000 0.000000
# 65 normals

usemtl default
s 1
f 1/1/1 2/2/2 3/3/3
f 3/3/3 4/4/4 1/1/1
f 5/5/5 6/6/6 2/2/2
f 2/2/2 1/1/1 5/5/5
f 7/7/7 8/8/8 6/9/6
f 6/9/6 5/10/5 7/7/7
f 9/11/9 10/12/10 8/8/8
f 8/8/8 7/7/7 9/11/9
f 11/13/11 12/14/12 10/15/10
f 10/15/10 9/16/9 11/13/11
f 13/17/13 14/18/14 12/14/12
f 12/14/12 11/13/11 13/17/13
f 15/19/15 16/20/16 14/18/14
f 14/18/14 13/17/13 15/19/15
f 17/21/17 18/22/18 16/20/16
f 16/20/16 15/19/15 17/21/17
f 19/23/19 20/24/20 18/25/18
f 18/25/18 17/26/17 19/23/19
f 21/27/21 22/28/22 20/24/20
f 20/24/20 19/23/19 21/27/21
f 23/29/23 24/30/24 22/28/22
f 22/28/22 21/27/21 23/29/23
f 4/4/4 3/3/3 24/31/24
f 24/31/24 23/32/23 4/4/4
f 29/49/27 30/50/27 2/2/2
f 2/2/2 6/6/6 29/49/27
f 35/55/29 36/56/29 8/8/8
f 8/8/8 10/12/10 35/55/29
f 41/61/31 42/62/31 12/14/12
f 12/14/12 14/18/14 41/61/31
f 47/67/33 48/68/33 16/20/16
f 16/20/16 18/22/18 47/67/33
f 53/73/35 54/74/35 20/24/20
f 20/24/20 22/28/22 53/73/35
f 59/79/37 60/80/37 24/31/24
f 24/31/24 3/3/3 59/79/37
s 2
f 21/33/25 19/34/25 17/35/25
f 17/35/25 15/36/25 13/37/25
f 13/37/25 11/38/25 9/39/25
f 17/35/25 13/37/25 9/39/25
f 9/39/25 7/40/25 5/41/25
f 5/41/25 1/42/25 4/43/25
f 9/39/25 5/41/25 4/43/25
f 17/35/25 9/39/25 4/43/25
f 21/33/25 17/35/25 4/43/25
f 23/44/25 21/33/25 4/43/25
s 3
f 25/45/26 26/46/26 27/47/26
f 27/47/26 28/48/26 25/45/26
s 4
f 31/51/28 32/52/28 33/53/28
f 33/53/28 34/54/28 31/51/28
s 5
f 37/57/30 38/58/30 39/59/30
f 39/59/30 40/60/30 37/57/30
s 6
f 43/63/32 44/64/32 45/65/32
f 45/65/32 46/66/32 43/63/32
s 7
f 49/69/34 50/70/34 51/71/34
f 51/71/34 52/72/34 49/69/34
s 8
f 55/75/36 56/76/36 57/77/36
f 57/77/36 58/78/36 55/75/36
s 9
f 30/81/38 59/82/38 26/83/38
f 26/83/38 25/84/38 30/81/38
s 10
f 59/85/39 3/86/39 27/87/39
f 27/87/39 26/88/39 59/85/39
s 11
f 3/89/40 2/90/40 28/91/40
f 28/91/40 27/92/40 3/89/40
s 12
f 2/93/41 30/94/41 25/95/41
f 25/95/41 28/96/41 2/93/41
s 13
f 36/97/42 29/98/42 32/99/42
f 32/99/42 31/100/42 36/97/42
s 14
f 29/49/43 6/6/43 33/101/43
f 33/101/43 32/102/43 29/49/43
s 15
f 6/103/44 8/104/44 34/105/44
f 34/105/44 33/106/44 6/103/44
s 16
f 8/107/45 36/108/45 31/109/45
f 31/109/45 34/110/45 8/107/45
s 17
f 42/111/46 35/112/46 38/113/46
f 38/113/46 37/114/46 42/111/46
s 18
f 35/55/47 10/12/47 39/115/47
f 39/115/47 38/116/47 35/55/47
s 19
f 10/117/48 12/118/48 40/119/48
f 40/119/48 39/120/48 10/117/48
s 20
f 12/14/49 42/62/49 37/57/49
f 37/57/49 40/60/49 12/14/49
s 21
f 48/121/50 41/122/50 44/123/50
f 44/123/50 43/124/50 48/121/50
s 22
f 41/125/51 14/126/51 45/127/51
f 45/127/51 44/128/51 41/125/51
s 23
f 14/129/52 16/130/52 46/131/52
f 46/131/52 45/132/52 14/129/52
s 24
f 16/133/53 48/134/53 43/135/53
f 43/135/53 46/136/53 16/133/53
s 25
f 54/137/54 47/138/54 50/139/54
f 50/139/54 49/140/54 54/137/54
s 26
f 47/67/55 18/22/55 51/141/55
f 51/141/55 50/142/55 47/67/55
s 27
f 18/143/56 20/144/56 52/145/56
f 52/145/56 51/146/56 18/143/56
s 28
f 20/147/57 54/148/57 49/149/57
f 49/149/57 52/150/57 20/147/57
s 29
f 60/151/58 53/152/58 56/153/58
f 56/153/58 55/154/58 60/151/58
s 30
f 53/73/59 22/28/59 57/77/59
f 57/77/59 56/76/59 53/73/59
s 31
f 22/155/60 24/156/60 58/157/60
f 58/157/60 57/158/60 22/155/60
s 32
f 24/31/61 60/80/61 55/159/61
f 55/159/61 58/160/61 24/31/61
s 33
f 59/82/62 30/81/62 61/161/62
f 30/81/62 29/98/62 61/161/62
f 29/98/62 36/97/62 61/161/62
f 36/97/62 35/112/63 61/161/62
f 35/112/63 42/111/63 61/161/62
f 42/111/63 41/122/63 61/161/62
f 41/122/63 48/121/64 61/161/62
f 48/121/64 47/138/64 61/161/62
f 47/138/64 54/137/64 61/161/62
f 54/137/64 53/152/65 61/161/62
f 53/152/65 60/151/65 61/161/62
f 60/151/65 59/82/62 61/161/62

# 118 faces
