# Wavefront Obj file
# 
# verts: 36 uv-s: 80
mtllib candle.mtl

g candle001
#pivot 0.000000 0.000000 0.000000

v 0.440600 0.000000 0.000000
v 0.381600 0.000000 -0.220300
v 0.381600 11.323300 -0.220300
v 0.440600 11.323300 0.000000
v 0.220300 0.000000 -0.381600
v 0.220300 11.323300 -0.381600
v 0.000000 0.000000 -0.440600
v 0.000000 11.323300 -0.440600
v -0.220300 0.000000 -0.381600
v -0.220300 11.323300 -0.381600
v -0.381600 0.000000 -0.220300
v -0.381600 11.323300 -0.220300
v -0.440600 0.000000 0.000000
v -0.440600 11.323300 0.000000
v -0.381600 0.000000 0.220300
v -0.381600 11.323300 0.220300
v -0.220300 0.000000 0.381600
v -0.220300 11.323300 0.381600
v 0.000000 0.000000 0.440600
v 0.000000 11.323300 0.440600
v 0.220300 0.000000 0.381600
v 0.220300 11.323300 0.381600
v 0.381600 0.000000 0.220300
v 0.381600 11.323300 0.220300
v 0.085200 11.167400 0.000000
v 0.042600 11.167400 -0.073800
v 0.042600 12.517200 -0.073800
v 0.085200 12.517200 0.000000
v -0.042600 11.167400 -0.073800
v -0.042600 12.517200 -0.073800
v -0.085200 11.167400 0.000000
v -0.085200 12.517200 0.000000
v -0.042600 11.167400 0.073800
v -0.042600 12.517200 0.073800
v 0.042600 11.167400 0.073800
v 0.042600 12.517200 0.073800
# 36 positions

vt 0.002000 0.082300
vt 0.002000 0.062200
vt 0.998000 0.062200
vt 0.998000 0.082300
vt 0.002000 0.042100
vt 0.998000 0.042100
vt 0.002000 0.022100
vt 0.998000 0.022100
vt 0.002000 0.002000
vt 0.998000 0.002000
vt 0.002000 0.242900
vt 0.002000 0.222800
vt 0.998000 0.222800
vt 0.998000 0.242900
vt 0.002000 0.202700
vt 0.998000 0.202700
vt 0.002000 0.182700
vt 0.998000 0.182700
vt 0.002000 0.162600
vt 0.998000 0.162600
vt 0.002000 0.142500
vt 0.998000 0.142500
vt 0.002000 0.122400
vt 0.998000 0.122400
vt 0.002000 0.102300
vt 0.998000 0.102300
vt 0.077000 0.280800
vt 0.076900 0.300800
vt 0.066700 0.318100
vt 0.049300 0.328100
vt 0.029200 0.327900
vt 0.011900 0.317800
vt 0.002000 0.300300
vt 0.002100 0.280200
vt 0.012300 0.262900
vt 0.029800 0.253000
vt 0.049800 0.253200
vt 0.067100 0.263300
vt 0.152300 0.263300
vt 0.162200 0.280800
vt 0.162100 0.300800
vt 0.151900 0.318100
vt 0.134500 0.328100
vt 0.114400 0.327900
vt 0.097100 0.317800
vt 0.087200 0.300300
vt 0.087300 0.280200
vt 0.097500 0.262900
vt 0.114900 0.253000
vt 0.135000 0.253200
vt 0.172300 0.294500
vt 0.172300 0.290200
vt 0.309500 0.290200
vt 0.309500 0.294500
vt 0.172300 0.281500
vt 0.309500 0.281500
vt 0.327900 0.260000
vt 0.327900 0.253000
vt 0.455600 0.253000
vt 0.455600 0.260000
vt 0.172300 0.271400
vt 0.172300 0.266800
vt 0.317800 0.266800
vt 0.317800 0.271400
vt 0.172300 0.257600
vt 0.317800 0.257600
vt 0.172300 0.253000
vt 0.317800 0.253000
vt 0.098400 0.338200
vt 0.102200 0.344700
vt 0.098400 0.351200
vt 0.090900 0.351200
vt 0.087200 0.344700
vt 0.090900 0.338200
vt 0.005700 0.338200
vt 0.013200 0.338200
vt 0.017000 0.344700
vt 0.013200 0.351200
vt 0.005700 0.351200
vt 0.002000 0.344700
# 80 texture coordinates

vn 0.998231 0.000000 -0.059452
vn 0.866056 0.000000 -0.499946
vn 0.499989 0.000000 -0.866032
vn -0.000000 0.000000 -1.000000
vn -0.499989 0.000000 -0.866032
vn -0.866056 0.000000 -0.499947
vn -1.000000 0.000000 0.000000
vn -0.866056 0.000000 0.499946
vn -0.499989 0.000000 0.866032
vn 0.000000 0.000000 1.000000
vn 0.499989 0.000000 0.866032
vn 0.866056 0.000000 0.499947
vn 0.000000 -1.000000 0.000000
vn 0.000000 1.000000 0.000000
vn 0.981987 0.000000 0.188946
vn -1.000000 0.000000 -0.000000
# 16 normals

usemtl wire_115115115
f 1/1/1 2/2/2 3/3/2
f 3/3/2 4/4/1 1/1/1
f 2/2/2 5/5/3 6/6/3
f 6/6/3 3/3/2 2/2/2
f 5/5/3 7/7/4 8/8/4
f 8/8/4 6/6/3 5/5/3
f 7/7/4 9/9/5 10/10/5
f 10/10/5 8/8/4 7/7/4
f 9/11/5 11/12/6 12/13/6
f 12/13/6 10/14/5 9/11/5
f 11/12/6 13/15/7 14/16/7
f 14/16/7 12/13/6 11/12/6
f 13/15/7 15/17/8 16/18/8
f 16/18/8 14/16/7 13/15/7
f 15/17/8 17/19/9 18/20/9
f 18/20/9 16/18/8 15/17/8
f 17/19/9 19/21/10 20/22/10
f 20/22/10 18/20/9 17/19/9
f 19/21/10 21/23/11 22/24/11
f 22/24/11 20/22/10 19/21/10
f 21/23/11 23/25/12 24/26/12
f 24/26/12 22/24/11 21/23/11
f 23/25/12 1/1/1 4/4/1
f 4/4/1 24/26/12 23/25/12
f 21/27/13 19/28/13 17/29/13
f 17/29/13 15/30/13 13/31/13
f 13/31/13 11/32/13 9/33/13
f 17/29/13 13/31/13 9/33/13
f 9/33/13 7/34/13 5/35/13
f 5/35/13 2/36/13 1/37/13
f 9/33/13 5/35/13 1/37/13
f 17/29/13 9/33/13 1/37/13
f 21/27/13 17/29/13 1/37/13
f 23/38/13 21/27/13 1/37/13
f 3/39/14 6/40/14 8/41/14
f 8/41/14 10/42/14 12/43/14
f 12/43/14 14/44/14 16/45/14
f 8/41/14 12/43/14 16/45/14
f 16/45/14 18/46/14 20/47/14
f 20/47/14 22/48/14 24/49/14
f 16/45/14 20/47/14 24/49/14
f 8/41/14 16/45/14 24/49/14
f 3/39/14 8/41/14 24/49/14
f 4/50/14 3/39/14 24/49/14
f 25/51/1 26/52/3 27/53/3
f 27/53/3 28/54/15 25/51/1
f 26/52/3 29/55/5 30/56/5
f 30/56/5 27/53/3 26/52/3
f 29/57/5 31/58/16 32/59/16
f 32/59/16 30/60/5 29/57/5
f 31/61/16 33/62/9 34/63/9
f 34/63/9 32/64/16 31/61/16
f 33/62/9 35/65/11 36/66/11
f 36/66/11 34/63/9 33/62/9
f 35/65/11 25/67/1 28/68/15
f 28/68/15 36/66/11 35/65/11
f 33/69/13 31/70/13 29/71/13
f 29/71/13 26/72/13 25/73/13
f 33/69/13 29/71/13 25/73/13
f 35/74/13 33/69/13 25/73/13
f 27/75/14 30/76/14 32/77/14
f 32/77/14 34/78/14 36/79/14
f 27/75/14 32/77/14 36/79/14
f 28/80/14 27/75/14 36/79/14

# 64 faces
